<svg id="message_icon" xmlns="http://www.w3.org/2000/svg" viewBox="0 0 20 20">
  <path d="M1.667 2.708v-.75a.75.75 0 00-.75.75h.75zm16.666 0h.75a.75.75 0 00-.75-.75v.75zm0 12.5v.75a.75.75 0 00.75-.75h-.75zm-6.25 0v-.75a.75.75 0 00-.53.22l.53.53zM10 17.292l-.53.53a.75.75 0 001.06 0l-.53-.53zm-2.083-2.084l.53-.53a.75.75 0 00-.53-.22v.75zm-6.25 0h-.75c0 .415.335.75.75.75v-.75zm7.916-7a.75.75 0 000 1.5v-1.5zm.835 1.5a.75.75 0 000-1.5v1.5zm3.332-1.5a.75.75 0 000 1.5v-1.5zm.833 1.5a.75.75 0 000-1.5v1.5zm-9.166-1.5a.75.75 0 000 1.5v-1.5zm.833 1.5a.75.75 0 100-1.5v1.5zm-4.583-6.25h16.666v-1.5H1.667v1.5zm15.916-.75v12.5h1.5v-12.5h-1.5zm.75 11.75h-6.25v1.5h6.25v-1.5zm-6.78.22L9.47 16.761l1.06 1.061 2.084-2.083-1.061-1.061zm-1.023 2.083l-2.083-2.083-1.06 1.06 2.083 2.084 1.06-1.06zm-2.613-2.303h-6.25v1.5h6.25v-1.5zm-5.5.75v-12.5h-1.5v12.5h1.5zm7.166-5.5h.835v-1.5h-.835v1.5zm4.167 0h.833v-1.5h-.833v1.5zm-8.333 0h.833v-1.5h-.833v1.5z"/>
</svg>
