<svg id="logo_icon" viewBox="0 0 104 40" xmlns="http://www.w3.org/2000/svg">
<path d="M7.57213 29.0383C11.9613 29.0383 14.6119 25.6974 14.6204 19.9446C14.6289 14.2344 11.9443 10.9616 7.57213 10.9616C3.19145 10.9616 0.532354 14.2258 0.523832 19.9446C0.506786 25.6804 3.1744 29.0298 7.57213 29.0383ZM7.57213 25.9787C5.56929 25.9787 4.27383 23.9673 4.28235 19.9446C4.29088 15.9815 5.57781 13.9872 7.57213 13.9872C9.55792 13.9872 10.8534 15.9815 10.8534 19.9446C10.8619 23.9673 9.56645 25.9787 7.57213 25.9787Z"/>
<path d="M24.8456 11.2003H21.3768L17.0558 13.9361V17.2088L21.0529 14.7031H21.1552V28.6548H24.8456V11.2003Z"/>
<path d="M39.9201 19.2969C39.5963 16.8849 37.6531 15.3935 34.3463 15.3935C30.9968 15.3935 28.7895 16.9446 28.798 19.4673C28.7895 21.4276 30.0253 22.6974 32.5821 23.2088L34.8491 23.6605C35.9912 23.8906 36.511 24.3082 36.5281 24.9645C36.511 25.7401 35.6673 26.294 34.3974 26.294C33.102 26.294 32.2412 25.7401 32.0196 24.6747L28.4485 24.8622C28.7895 27.3679 30.9201 28.9105 34.3889 28.9105C37.7809 28.9105 40.2099 27.1804 40.2184 24.598C40.2099 22.706 38.9741 21.5724 36.4343 21.0526L34.065 20.5753C32.8463 20.3111 32.3946 19.8935 32.4031 19.2628C32.3946 18.4787 33.2809 17.9673 34.4059 17.9673C35.6673 17.9673 36.4173 18.6577 36.5963 19.5014L39.9201 19.2969Z"/>
<path d="M46.1353 21.0866C46.1439 19.3991 47.1751 18.4105 48.6581 18.4105C50.1325 18.4105 51.0018 19.3565 50.9933 20.9673V28.6548H54.624V20.3196C54.6325 17.2514 52.8257 15.3935 50.0984 15.3935C48.1126 15.3935 46.7831 16.331 46.1865 17.8736H46.0331V11.2003H42.5047V28.6548H46.1353V21.0866Z"/>
<path d="M63.396 28.9105C67.3676 28.9105 69.8392 26.1918 69.8392 22.1605C69.8392 18.1037 67.3676 15.3935 63.396 15.3935C59.4244 15.3935 56.9528 18.1037 56.9528 22.1605C56.9528 26.1918 59.4244 28.9105 63.396 28.9105ZM63.413 26.098C61.5807 26.098 60.6432 24.419 60.6432 22.1349C60.6432 19.8508 61.5807 18.1633 63.413 18.1633C65.2113 18.1633 66.1488 19.8508 66.1488 22.1349C66.1488 24.419 65.2113 26.098 63.413 26.098Z"/>
<path d="M74.4542 28.6548H78.2895L80.5395 20.4219H80.7014L82.9514 28.6548H86.7951L90.3491 15.5639H86.6843L84.69 24.3082H84.5792L82.4315 15.5639H78.8264L76.7128 24.3594H76.5934L74.565 15.5639H70.8917L74.4542 28.6548Z"/>
<path d="M103.178 19.2969C102.854 16.8849 100.911 15.3935 97.6041 15.3935C94.2547 15.3935 92.0473 16.9446 92.0558 19.4673C92.0473 21.4276 93.2831 22.6974 95.8399 23.2088L98.1069 23.6605C99.249 23.8906 99.7689 24.3082 99.7859 24.9645C99.7689 25.7401 98.9251 26.294 97.6552 26.294C96.3598 26.294 95.499 25.7401 95.2774 24.6747L91.7064 24.8622C92.0473 27.3679 94.1779 28.9105 97.6467 28.9105C101.039 28.9105 103.468 27.1804 103.476 24.598C103.468 22.706 102.232 21.5724 99.6922 21.0526L97.3228 20.5753C96.1041 20.3111 95.6524 19.8935 95.6609 19.2628C95.6524 18.4787 96.5387 17.9673 97.6637 17.9673C98.9251 17.9673 99.6751 18.6577 99.8541 19.5014L103.178 19.2969Z"/>
</svg>
